<svg data-v-423bf9ae="" xmlns="http://www.w3.org/2000/svg" viewBox="0 0 NaN 90" class="iconLeft"><!----><!----><!----><g data-v-423bf9ae="" id="35870562-72ee-4af3-b0a6-5ea78d103fc4" fill="black" transform="matrix(Infinity,0,0,Infinity,0,0)"><path d=""></path></g><!----><g data-v-423bf9ae="" id="251f0619-005f-4eb0-8d3c-932ed8e5e6f6" transform="matrix(1.2297769040281374,0,0,1.2297769040281374,-10.148849740045577,-16.083146329955923)" stroke="none" fill="black"><path d="M46.074 16.074H29.883v8.77h16.172v-8.77zm5.508-2.656h-3.164V29.57h3.164zm.664 32.617l.586-1.016 2.031 1.172-8.203 14.22-2.012-1.173zm7.11 10.41l-.9.742-1.484-1.797 3.243-2.676-3.243-2.676 1.485-1.796c1.816 1.484 3.613 2.988 5.43 4.472zm-17.228-1.817l.899.743-1.485 1.796c-1.816-1.484-3.633-2.988-5.43-4.472 1.817-1.485 3.633-2.989 5.43-4.473l1.485 1.797-3.243 2.676zM56.054 69.16a8.547 8.547 0 00-12.09 0 8.564 8.564 0 00-2.52 6.055v11.387h17.11V75.195a8.535 8.535 0 00-2.5-6.035zM50 64.296c5.996 0 10.898 4.902 10.898 10.898v11.387H91.66L52.207 31.913h-4.415L8.34 86.581h30.762V75.194c0-5.996 4.903-10.898 10.898-10.898z"></path></g><!----></svg>