<?xml version="1.0" encoding="iso-8859-1"?>
<!-- Uploaded to: SVG Repo, www.svgrepo.com, Generator: SVG Repo Mixer Tools -->
<svg height="800px" width="800px" version="1.1" id="Layer_1" xmlns="http://www.w3.org/2000/svg" xmlns:xlink="http://www.w3.org/1999/xlink" 
	 viewBox="0 0 392.533 392.533" xml:space="preserve">
<polygon style="fill:#FFC10D;" points="21.882,351.483 37.849,370.747 354.875,370.747 370.843,351.483 370.843,321.551 
	21.882,321.551 "/>
<path style="fill:#FFFFFF;" d="M345.566,112.097c0-6.012-4.849-10.925-10.925-10.925H292.75v18.166
	c0,6.012-4.848,10.925-10.925,10.925h-9.115l6.465,6.465c4.267,4.073,4.396,10.99,0,15.451l-30.384,30.19
	c-4.267,4.267-11.119,4.267-15.386,0l-6.465-6.465v9.115c0,6.012-4.848,10.925-10.925,10.925h-42.796
	c-6.012,0-10.925-4.848-10.925-10.925v-9.115l-6.465,6.465c-4.267,4.267-11.119,4.267-15.386,0l-30.319-30.19
	c-4.267-4.073-4.202-10.99,0-15.451l6.465-6.465h-9.115c-6.012,0-10.925-4.848-10.925-10.925v-18.101H54.787
	c-6.012,0-10.925,4.848-10.925,10.925v187.604h301.705V112.097z"/>
<path style="fill:#56ACE0;" d="M87.498,123.022c-12.024,0-21.786,9.762-21.786,21.786v52.105h50.489
	c6.012,0,10.925,4.848,10.925,10.925c0,6.012-4.848,10.925-10.925,10.925H65.712v17.067h29.737c6.012,0,10.925,4.848,10.925,10.925
	c0,6.012-4.848,10.925-10.925,10.925H65.841c0.776,11.378,10.149,20.299,21.657,20.299H301.93c12.024,0,21.786-9.762,21.786-21.786
	V144.808c0-12.024-9.762-21.786-21.786-21.786"/>
<path style="fill:#FFC10D;" d="M142.641,115.846c0.711,2.069,1.616,4.202,2.651,6.335c2.069,4.202,1.228,9.18-2.069,12.541
	l-9.826,9.826l14.804,14.804l9.826-9.826c3.297-3.297,8.339-4.073,12.541-2.069c2.069,1.034,4.267,1.939,6.335,2.651
	c4.396,1.551,7.37,5.624,7.37,10.279v13.834h21.01v-13.834c0-4.655,2.909-8.792,7.37-10.279c2.069-0.711,4.202-1.616,6.335-2.651
	c4.202-2.004,9.18-1.228,12.541,2.069l9.826,9.826l14.869-14.804l-9.826-9.826c-3.297-3.297-4.202-8.339-2.069-12.541
	c1.034-2.069,1.939-4.267,2.651-6.335c1.552-4.396,5.624-7.37,10.279-7.37h13.899v-21.01H257.13c-4.655,0-8.792-2.909-10.279-7.37
	c-0.711-2.069-1.616-4.202-2.651-6.271c-2.069-4.202-1.228-9.18,2.069-12.541l9.826-9.826l-14.869-14.804l-9.826,9.826
	c-3.297,3.297-8.339,4.073-12.541,2.069c-2.069-1.034-4.202-1.939-6.335-2.651c-4.396-1.552-7.37-5.624-7.37-10.279V21.721h-21.01
	v13.834c0,4.655-2.909,8.792-7.37,10.279c-2.069,0.711-4.202,1.616-6.335,2.651c-4.202,2.069-9.18,1.228-12.541-2.069l-9.697-9.826
	l-14.804,14.869l9.826,9.826c3.297,3.297,4.202,8.339,2.069,12.541c-1.034,2.069-1.939,4.202-2.651,6.271
	c-1.552,4.396-5.624,7.37-10.279,7.37h-13.899v21.01h13.899C137.017,108.477,141.09,111.45,142.641,115.846z M194.746,55.079
	c23.661,0,42.861,19.265,42.861,42.861S218.342,140.8,194.746,140.8s-42.861-19.265-42.861-42.861S171.086,55.079,194.746,55.079z"
	/>
<g>
	<path style="fill:#194F82;" d="M194.746,140.865c23.661,0,42.861-19.265,42.861-42.861s-19.265-42.861-42.861-42.861
		s-42.861,19.265-42.861,42.861S171.086,140.865,194.746,140.865z M194.746,76.929c11.636,0,21.075,9.438,21.075,21.075
		c0,11.572-9.503,21.075-21.075,21.075c-11.636,0-21.075-9.438-21.075-21.075S183.045,76.929,194.746,76.929z"/>
	<path style="fill:#194F82;" d="M162.811,357.042h66.974c6.012,0,10.925-4.848,10.925-10.925c0-6.012-4.848-10.925-10.925-10.925
		h-66.974c-6.012,0-10.925,4.848-10.925,10.925C151.95,352.129,156.799,357.042,162.811,357.042z"/>
	<path style="fill:#194F82;" d="M381.768,299.766h-14.352V112.097c0-18.036-14.675-32.711-32.711-32.711h-41.891v-2.715
		c0-6.012-4.849-10.925-10.925-10.925h-9.115l6.465-6.465c4.396-4.073,4.461-11.572,0-15.451l-30.384-30.19
		c-4.267-4.267-11.119-4.267-15.386,0l-6.465,6.465v-9.18C227.005,4.913,222.156,0,216.08,0h-42.796
		c-6.012,0-10.925,4.848-10.925,10.925v9.115l-6.465-6.465c-4.267-4.267-11.119-4.267-15.386,0l-30.319,30.319
		c-4.331,4.461-4.331,11.313,0,15.451l6.465,6.465h-9.115c-6.012,0-10.925,4.848-10.925,10.925v2.78H54.787
		c-18.036,0-32.711,14.675-32.711,32.711V299.83H10.956c-6.012,0-10.925,4.848-10.925,10.925v44.8c0,2.521,0.905,5.042,2.521,6.982
		l21.851,26.052c2.069,2.457,5.172,3.943,8.339,3.943h327.111c3.232,0,6.335-1.487,8.339-3.943l21.786-26.182
		c1.616-1.939,2.521-4.396,2.521-6.982v-44.8C392.629,304.614,387.78,299.766,381.768,299.766z M370.843,351.483l-15.968,19.265
		H37.849l-15.968-19.265v-29.996h348.962L370.843,351.483L370.843,351.483z M43.926,112.097c0-6.012,4.848-10.925,10.925-10.925
		h41.891v18.166c0,6.012,4.848,10.925,10.925,10.925h9.115l-6.465,6.465c-4.202,4.461-4.267,11.378,0,15.451l30.319,30.319
		c4.267,4.267,11.119,4.267,15.386,0l6.465-6.465v9.115c0,6.012,4.848,10.925,10.925,10.925h42.796
		c6.012,0,10.925-4.848,10.925-10.925v-9.115l6.465,6.465c4.267,4.267,11.119,4.267,15.386,0l30.319-30.319
		c4.396-4.396,4.267-11.313,0-15.451l-6.465-6.465h9.115c6.012,0,10.925-4.848,10.925-10.925v-18.101h42.02
		c6.012,0,10.925,4.848,10.925,10.925v187.604H43.926V112.097z M132.362,87.531c4.655,0,8.792-2.909,10.279-7.37
		c0.711-2.069,1.616-4.202,2.651-6.271c2.069-4.202,1.228-9.18-2.069-12.541l-9.826-9.826l14.804-14.804l9.826,9.826
		c3.297,3.297,8.339,4.073,12.541,2.069c2.069-1.034,4.267-1.939,6.335-2.651c4.396-1.552,7.37-5.624,7.37-10.279V21.721h21.01
		v13.834c0,4.655,2.909,8.792,7.37,10.279c2.069,0.711,4.202,1.616,6.335,2.651c4.202,2.069,9.18,1.228,12.541-2.069l9.826-9.826
		l14.869,14.804l-9.826,9.826c-3.297,3.297-4.202,8.339-2.069,12.541c1.034,2.069,1.939,4.202,2.651,6.271
		c1.552,4.396,5.624,7.37,10.279,7.37h13.899v2.78v18.166H257.13c-4.655,0-8.792,2.909-10.279,7.37
		c-0.711,2.069-1.616,4.202-2.651,6.335c-2.069,4.202-1.228,9.18,2.069,12.541l9.826,9.826l-14.869,14.869l-9.826-9.826
		c-3.297-3.297-8.275-4.073-12.541-2.069c-2.069,1.034-4.267,1.939-6.335,2.651c-4.396,1.552-7.37,5.624-7.37,10.279v13.834h-21.01
		v-13.834c0-4.655-2.909-8.792-7.37-10.279c-2.069-0.711-4.202-1.616-6.335-2.651c-4.202-2.004-9.18-1.228-12.541,2.069
		l-9.826,9.826l-14.869-14.675l9.826-9.826c3.297-3.297,4.202-8.339,2.069-12.541c-1.034-2.069-1.939-4.267-2.65-6.335
		c-1.552-4.396-5.624-7.37-10.279-7.37h-13.899V90.376v-2.78C118.463,87.531,132.362,87.531,132.362,87.531z"/>
</g>
</svg>